Patient4_TMGait_0pt2_02_right_02_GRF.mot
version=1
nRows=32
nColumns=19
inDegrees=no
endheader
time	F1x	F1y	F1z	M1x	M1y	M1z	F2x	F2y	F2z	M2x	M2y	M2z	EC1x	EC1y	EC1z	EC2x	EC2y	EC2z
2.91	-5.6742	576.9771	27.4057	-195.1564	-33.3036	610.8411	36.3268	141.8854	-11.7202	55.3741	-1.3699	145.3595	-0.0592	0.0182	-0.0073	-0.0462	0.0165	0.9585
2.9346	-6.0799	616.8711	31.3072	-207.7647	-37.345	651.7273	29.627	115.5646	-9.3321	45.258	-1.5885	118.1822	-0.0592	0.0182	-0.0073	-0.0462	0.0165	0.9585
2.9591	-6.9221	661.7128	36.0592	-221.9005	-42.3465	697.9245	22.7045	88.285	-6.8392	34.7007	-1.7244	90.1562	-0.0592	0.0182	-0.0073	-0.0462	0.0165	0.9585
2.9837	-8.2058	707.9595	41.3064	-236.3937	-47.9393	745.7986	16.155	62.7409	-4.5298	24.7578	-1.7062	64.0105	-0.0592	0.0182	-0.0073	-0.0462	0.0165	0.9585
3.0083	-9.8286	752.4274	46.5464	-250.2103	-53.5631	791.9933	10.458	40.9097	-2.6277	16.2183	-1.5112	41.7263	-0.0592	0.0182	-0.0073	-0.0462	0.0165	0.9585
3.0329	-11.5373	792.9431	51.2542	-262.674	-58.5785	834.0803	5.9206	23.805	-1.2311	9.4979	-1.1866	24.3078	-0.0592	0.0182	-0.0073	-0.0462	0.0165	0.9585
3.0574	-12.9395	828.0599	55.0148	-273.3597	-62.4192	870.2892	2.6416	11.5462	-0.31721	4.6608	-0.82131	11.8499	-0.0592	0.0182	-0.0073	-0.0462	0.0165	0.9585
3.082	-13.6069	856.3038	57.6115	-281.827	-64.7251	898.8114	0.50704	3.5788	0.20961	1.5029	-0.49147	3.7662	-0.0592	0.0182	-0.0073	-0.0462	0.0165	0.9585
3.1066	-13.2062	875.8231	59.0121	-287.4994	-65.3676	917.5236	-0.70623	-1.0238	0.45957	-0.33184	-0.23884	-0.89837	-0.0592	0.0182	-0.0073	-0.0462	0.0165	0.9585
3.1311	-11.5979	884.8401	59.2754	-289.8205	-64.3843	924.5099	-1.2475	-3.2732	0.53476	-1.2386	-0.079257	-3.1866	-0.0592	0.0182	-0.0073	-0.0462	0.0165	0.9585
3.1557	-8.8338	882.575	58.4682	-288.5641	-61.8891	919.0147	-1.3477	-4.0937	0.5192	-1.5819	-0.009277	-4.0514	-0.0592	0.0182	-0.0073	-0.0462	0.0165	0.9585
3.1803	-5.1155	869.8851	56.6709	-284.0414	-58.0607	902.066	-1.1935	-4.2393	0.47169	-1.6603	-0.013759	-4.2673	-0.0592	0.0182	-0.0073	-0.0462	0.0165	0.9585
3.2049	-0.73005	849.2892	54.0502	-277.0946	-53.1936	876.4435	-0.91857	-4.2582	0.42554	-1.6907	-0.069661	-4.393	-0.0592	0.0182	-0.0073	-0.0462	0.0165	0.9585
3.2294	4.0274	824.4653	50.9033	-268.9175	-47.7123	846.1243	-0.60602	-4.4843	0.39195	-1.8056	-0.15321	-4.7594	-0.0592	0.0182	-0.0073	-0.0462	0.0165	0.9585
3.254	8.8892	799.3767	47.6268	-260.7679	-42.1281	815.3618	-0.29756	-5.0353	0.36435	-2.0524	-0.24179	-5.4738	-0.0592	0.0182	-0.0073	-0.0462	0.0165	0.9585
3.2786	13.6165	777.3228	44.6323	-253.6694	-36.9486	787.7043	-0.0061023	-5.8025	0.32089	-2.3883	-0.30599	-6.3981	-0.0592	0.0182	-0.0073	-0.0462	0.0165	0.9585
3.3031	18.0059	760.2731	42.2491	-248.2121	-32.5722	765.3042	0.27237	-6.4297	0.22383	-2.6706	-0.30277	-7.124	-0.0592	0.0182	-0.0073	-0.0462	0.0165	0.9585
3.3277	21.9249	748.6942	40.6565	-244.5097	-29.2143	748.7303	0.54484	-6.2881	0.020778	-2.6449	-0.17258	-6.9452	-0.0592	0.0182	-0.0073	-0.0462	0.0165	0.9585
3.3523	25.3251	741.7107	39.8833	-242.2577	-26.9089	737.1356	0.80882	-4.4581	-0.35154	-1.9369	0.1614	-4.8333	-0.0592	0.0182	-0.0073	-0.0462	0.0165	0.9585
3.3769	28.225	737.4184	39.8517	-240.8315	-25.561	728.6046	1.0436	0.26396	-0.96106	-0.054732	0.78919	0.54795	-0.0592	0.0182	-0.0073	-0.0462	0.0165	0.9585
3.4014	30.6789	733.3391	40.4092	-239.4219	-24.9893	720.644	1.2006	9.2925	-1.8676	3.5832	1.8038	10.7622	-0.0592	0.0182	-0.0073	-0.0462	0.0165	0.9585
3.426	32.7155	726.8855	41.3463	-237.1806	-24.9667	710.6996	1.1957	24.0682	-3.0963	9.574	3.2744	27.3923	-0.0592	0.0182	-0.0073	-0.0462	0.0165	0.9585
3.4506	34.2745	715.7317	42.413	-233.337	-25.2645	696.5582	0.90591	45.7177	-4.6097	18.3931	5.211	51.6551	-0.0592	0.0182	-0.0073	-0.0462	0.0165	0.9585
3.4751	35.1916	698.1144	43.3389	-227.3029	-25.6829	676.6419	0.12153	74.5949	-6.3213	30.204	7.5976	83.8911	-0.0592	0.0182	-0.0073	-0.0462	0.0165	0.9585
3.4997	35.2625	673.1492	43.8516	-218.7844	-26.0457	650.2725	-1.444	109.9212	-8.271	44.6925	10.5924	123.1883	-0.0592	0.0182	-0.0073	-0.0462	0.0165	0.9585
3.5243	34.3413	641.0992	43.7213	-207.8774	-26.2058	617.8588	-3.8696	149.5265	-10.6203	60.9523	14.3987	167.109	-0.0592	0.0182	-0.0073	-0.0462	0.0165	0.9585
3.5489	32.4682	603.5577	42.8292	-195.1274	-26.0576	580.9866	-6.9313	190.5299	-13.4331	77.7803	18.98	212.4376	-0.0592	0.0182	-0.0073	-0.0462	0.0165	0.9585
3.5734	29.9241	563.1757	41.2252	-181.4302	-25.5666	542.1057	-10.333	231.0801	-16.5231	94.4088	24.0006	257.1137	-0.0592	0.0182	-0.0073	-0.0462	0.0165	0.9585
3.598	27.11	522.7097	39.0852	-167.7143	-24.7639	503.6586	-13.8135	270.5116	-19.5641	110.5681	28.9936	300.4022	-0.0592	0.0182	-0.0073	-0.0462	0.0165	0.9585
3.6226	24.3604	484.1393	36.6199	-154.6533	-23.7199	467.3128	-17.1385	308.4085	-22.2691	126.0866	33.5474	341.8461	-0.0592	0.0182	-0.0073	-0.0462	0.0165	0.9585
3.6471	21.8635	448.4598	34.031	-142.5972	-22.5324	433.8131	-20.061	344.115	-24.4741	140.6826	37.3761	380.7251	-0.0592	0.0182	-0.0073	-0.0462	0.0165	0.9585
3.6717	19.6946	415.986	31.4793	-131.6724	-21.2916	403.301	-22.3562	376.6549	-26.132	153.9374	40.3278	415.9684	-0.0592	0.0182	-0.0073	-0.0462	0.0165	0.9585
